<svg width="178" height="26" viewBox="0 0 178 26" fill="none" xmlns="http://www.w3.org/2000/svg">
<path d="M22.1348 17.079C24.1186 17.079 24.1995 15.9007 24.1995 13.2596V5.4989H28.167V13.2596C28.167 18.3386 27.2763 20.6953 22.9445 20.6953H20.5155C16.1836 20.6953 15.293 18.3386 15.293 13.2596V5.4989H19.2604V13.2596C19.2604 15.9413 19.3414 17.079 21.3251 17.079H22.1348V17.079Z" fill="#191B1D"/>
<path d="M11.6496 9.19649C11.6496 9.19649 7.96549 8.7089 6.26514 8.7089C4.5648 8.7089 4.20043 9.07459 4.20043 9.88723C4.20043 10.578 4.76721 10.7405 6.99386 11.1062C10.9209 11.7157 12.1759 12.8534 12.1759 15.8601C12.1759 19.3545 9.90874 20.6547 6.18417 20.6547C3.99801 20.6547 0.394889 19.9233 0.394889 19.9233L0.516344 16.5509C0.516344 16.5509 4.32189 17.0385 5.81981 17.0385C7.72258 17.0385 8.20839 16.6728 8.20839 15.9008C8.20839 15.2507 7.88452 15.0069 5.81981 14.6412C1.97379 13.9911 0.273438 13.0972 0.273438 9.92787C0.273438 6.47414 2.90493 5.09265 6.02223 5.09265C8.16791 5.09265 11.771 5.82403 11.771 5.82403L11.6496 9.19649Z" fill="#191B1D"/>
<path d="M31.2852 5.49887H35.2526C35.2526 5.49887 37.1554 5.13318 38.6128 5.13318C42.5398 5.13318 44.4426 7.08352 44.4426 12.772C44.4426 19.1106 42.2564 20.6546 37.7222 20.6546C36.6291 20.6546 35.2526 20.4108 35.2526 20.4108V25.693L31.2852 25.246V5.49887V5.49887ZM35.2526 9.35891V16.9165C35.2526 16.9165 36.5886 17.079 37.3983 17.079C39.7464 17.079 40.3941 15.9007 40.3941 12.772C40.3941 9.76523 39.382 8.79006 37.8031 8.79006C36.791 8.79006 35.2526 9.35891 35.2526 9.35891Z" fill="#191B1D"/>
<path d="M58.934 16.754L58.9745 19.842C58.9745 19.842 55.5738 20.6546 52.8209 20.6546C48.3676 20.6546 46.4648 18.4199 46.4648 13.0971C46.4648 7.8149 48.6915 5.13318 53.0233 5.13318C57.3551 5.13318 59.4603 7.32731 59.4603 11.8375L59.1769 14.6411H50.4728C50.5133 16.3476 51.323 17.0384 53.4686 17.0384C55.8977 17.0384 58.934 16.754 58.934 16.754ZM55.5738 11.553C55.5738 9.44018 54.8856 8.66817 53.0233 8.66817C51.1206 8.66817 50.4728 9.60271 50.4323 11.553H55.5738Z" fill="#191B1D"/>
<path d="M72.6602 5.49887H76.6276C76.6276 5.49887 78.5304 5.13318 79.9878 5.13318C83.9148 5.13318 85.8176 7.08352 85.8176 12.772C85.8176 19.1106 83.6314 20.6546 79.0972 20.6546C78.0041 20.6546 76.6276 20.4108 76.6276 20.4108V25.693L72.6602 25.246V5.49887V5.49887ZM76.6276 9.35891V16.9165C76.6276 16.9165 77.9636 17.079 78.7733 17.079C81.1214 17.079 81.7691 15.9007 81.7691 12.772C81.7691 9.76523 80.757 8.79006 79.1781 8.79006C78.2065 8.79006 76.6276 9.35891 76.6276 9.35891Z" fill="#191B1D"/>
<path d="M101.486 12.8939C101.486 17.4853 99.8257 20.6953 94.6842 20.6953C89.5427 20.6953 87.8828 17.4853 87.8828 12.8939C87.8828 8.30248 89.5427 5.13318 94.6842 5.13318C99.8257 5.13318 101.486 8.30248 101.486 12.8939ZM97.4776 12.8939C97.4776 10.1716 96.8703 8.74943 94.6842 8.74943C92.498 8.74943 91.8908 10.1716 91.8908 12.8939C91.8908 15.6163 92.498 17.079 94.6842 17.079C96.8703 17.079 97.4776 15.6163 97.4776 12.8939Z" fill="#191B1D"/>
<path d="M106.465 5.4989L108.286 16.7133H108.489L110.756 5.74269H114.885L117.153 16.7133H117.355L119.177 5.4989H123.104L120.351 20.3296H114.481L112.821 11.228L111.12 20.3296H105.331L102.578 5.4989H106.465Z" fill="#191B1D"/>
<path d="M136.907 16.754L136.947 19.842C136.947 19.842 133.546 20.6546 130.794 20.6546C126.34 20.6546 124.438 18.4199 124.438 13.0971C124.438 7.8149 126.664 5.13318 130.996 5.13318C135.328 5.13318 137.433 7.32731 137.433 11.8375L137.15 14.6411H128.445C128.486 16.3476 129.296 17.0384 131.441 17.0384C133.87 17.0384 136.907 16.754 136.907 16.754ZM133.546 11.553C133.546 9.44018 132.858 8.66817 130.996 8.66817C129.093 8.66817 128.445 9.60271 128.405 11.553H133.546Z" fill="#191B1D"/>
<path d="M162.129 16.754L162.17 19.842C162.17 19.842 158.769 20.6546 156.016 20.6546C151.563 20.6546 149.66 18.4199 149.66 13.0971C149.66 7.8149 151.887 5.13318 156.219 5.13318C160.55 5.13318 162.656 7.32731 162.656 11.8375L162.372 14.6411H153.668C153.709 16.3476 154.518 17.0384 156.664 17.0384C159.093 17.0384 162.129 16.754 162.129 16.754ZM158.769 11.553C158.769 9.44018 158.081 8.66817 156.219 8.66817C154.316 8.66817 153.668 9.60271 153.628 11.553H158.769Z" fill="#191B1D"/>
<path d="M177.999 20.3296H174.032C174.032 20.3296 172.007 20.6547 170.469 20.6547C166.016 20.6547 164.68 17.9323 164.68 12.7721C164.68 7.40863 166.785 5.17387 170.793 5.17387C171.886 5.17387 173.991 5.58019 173.991 5.58019V0.419922L177.959 0.866874V20.3296H177.999ZM174.032 16.5508V8.99328C174.032 8.99328 172.412 8.70886 171.117 8.70886C169.619 8.70886 168.728 9.76529 168.728 12.7314C168.728 15.7382 169.295 16.8759 171.157 16.9572C172.291 16.9572 174.032 16.5508 174.032 16.5508Z" fill="#191B1D"/>
<path d="M148.487 9.44018C146.706 9.44018 144.358 10.009 144.358 10.009V20.3702H140.391V5.49887H144.358C144.358 5.49887 147.03 5.13318 148.487 5.13318V9.44018Z" fill="#191B1D"/>
<path d="M70.5149 9.44018C68.7335 9.44018 66.3855 10.009 66.3855 10.009V20.3702H62.418V5.49887H66.3855C66.3855 5.49887 69.0574 5.13318 70.5149 5.13318V9.44018Z" fill="#191B1D"/>
</svg>
